<svg xmlns="http://www.w3.org/2000/svg" viewBox="0 0 2830.5 2830.5"><defs><style>.cls-1{fill:#27304f;}.cls-2{fill:#93278f;}.cls-3{fill:#00a99d;}.cls-4{fill:#ed1e79;}.cls-5{fill:#f7931e;}.cls-6{fill:#fff;}.cls-7{fill:#8cc63f;}.cls-8{fill:#fce712;}</style></defs><title>Artboard 3</title><g id="background"><path class="cls-1" d="M2830.5,2830.5H0V0H2830.5Z"/></g><g id="_4-shapes-pattern" data-name="4-shapes-pattern"><path class="cls-2" d="M791.06,666.68,942.52,771.29l104.61-151.46L895.67,515.22Zm144.25,65.23L830.44,659.47l72.43-104.88L1007.75,627Z"/><path class="cls-3" d="M307.59,338.52a92,92,0,1,0-57.68-116.68A92.14,92.14,0,0,0,307.59,338.52ZM357.52,191a63.73,63.73,0,1,1-80.8,39.94A63.81,63.81,0,0,1,357.52,191Z"/><path class="cls-3" d="M200.68,1967.1l180.65-35.31L346,1751.14l-180.65,35.31Zm147.45-57.66L223,1933.89,198.58,1808.8l125.09-24.45Z"/><path class="cls-3" d="M732.43,1208A92,92,0,1,0,632,1125.16,92.15,92.15,0,0,0,732.43,1208ZM717.51,1052.9a63.73,63.73,0,1,1-57.34,69.55A63.81,63.81,0,0,1,717.51,1052.9Z"/><path class="cls-3" d="M1864.34,1687.86l227.85-21.81-132.81-186.41Zm176.35-45.31L1910.45,1655l54.32-119Z"/><path class="cls-2" d="M150.29,2273,166,2249.49l79.77,53.39,53.39-79.77,23.53,15.75-53.39,79.77L349.1,2372l-15.75,23.52-79.77-53.39-53.39,79.77-23.52-15.74,53.39-79.77Z"/><path class="cls-4" d="M1233.85,1016.61l193.63,122.05,8.88-228.72Zm167.25,72-110.69-69.76,115.77-61Z"/><path class="cls-4" d="M1378.91,1985.59a92,92,0,1,0-48.69-120.7A92.13,92.13,0,0,0,1378.91,1985.59Zm60.94-143.35a63.73,63.73,0,1,1-83.58,33.72A63.81,63.81,0,0,1,1439.85,1842.24Z"/><path class="cls-4" d="M537.84,2540.94l17.25-22.44,76.1,58.51,58.51-76.1,22.44,17.26-58.51,76.09,76.1,58.51-17.26,22.44-76.09-58.51-58.51,76.1-22.44-17.25,58.51-76.1Z"/><path class="cls-4" d="M2505.54,356.84l181.73-29.26L2658,145.84l-181.73,29.27Zm149.29-52.71L2529,324.39l-20.27-125.84,125.85-20.26Z"/><path class="cls-5" d="M192.23,1174.54l25.89-11.44,38.8,87.8,87.8-38.79L356.16,1238l-87.8,38.79,38.79,87.81L281.26,1376l-38.79-87.8L154.66,1327l-11.43-25.88,87.8-38.8Z"/><path class="cls-5" d="M2248.22,878.58l182.71,22.29,22.3-182.72-182.72-22.29Zm158.05-9.23-126.53-15.44,15.44-126.52,126.52,15.43Z"/><path class="cls-5" d="M1804,2595.33l206.18,99.4-17-228.26Zm174.31,52.61-117.86-56.82,108.14-73.66Z"/><path class="cls-5" d="M1064.32,254.94A92,92,0,1,0,944,205.29,92.13,92.13,0,0,0,1064.32,254.94Zm-59.8-143.83a63.73,63.73,0,1,1-34.38,83.32A63.82,63.82,0,0,1,1004.52,111.11Z"/><path class="cls-6" d="M626.08,1675.84l216.78,73.46-44.77-224.47Zm179.43,30.92-123.91-42,98.32-86.31Z"/><path class="cls-6" d="M2407.52,1848.93l183.05,19.36,19.36-183-183-19.36Zm157.88-11.77-126.76-13.4L2452.05,1697l126.75,13.41Z"/><path class="cls-6" d="M1179,2517.7l173,62.9,62.9-173-173-62.9Zm156.06,26.63-119.79-43.56L1258.86,2381l119.79,43.56Z"/><path class="cls-6" d="M2018.28,472.76l225.54,39-79-214.83Zm182.06,2.77-128.92-22.3,83.77-100.51Z"/><path class="cls-2" d="M2457.93,2737.31a92,92,0,1,0-26-127.54A92.13,92.13,0,0,0,2457.93,2737.31Zm86-129.89a63.73,63.73,0,1,1-88.32,18A63.81,63.81,0,0,1,2543.9,2607.42Z"/><path class="cls-7" d="M245.05,634.7l12.66-25.31,85.84,43,43-85.84,25.32,12.67-43,85.84,85.84,43L442,733.3l-85.84-43-43,85.84L287.92,763.5l43-85.84Z"/><path class="cls-7" d="M1479.5,694.64a92,92,0,1,0-75.92-105.73A92.13,92.13,0,0,0,1479.5,694.64Zm25.22-153.71a63.73,63.73,0,1,1-73.21,52.57A63.8,63.8,0,0,1,1504.72,540.93Z"/><path class="cls-7" d="M1712.07,2064.9l18.74-21.21,71.92,63.58,63.58-71.91,21.21,18.75L1823.93,2126l71.92,63.58-18.75,21.21-71.92-63.59-63.58,71.92-21.2-18.75,63.58-71.91Z"/><path class="cls-7" d="M2424.62,1262.43l183.44-15.23-15.23-183.44L2409.39,1079Zm152.89-41.09-127,10.54-10.54-127,127-10.55Z"/><path class="cls-2" d="M1971.43,1231.54l58.33-221.33-220.84,60.14Zm18.47-181.14-33.35,126.52-92.89-92.14Z"/><path class="cls-8" d="M2239.48,2322.51l227.86-21.7-132.73-186.48Zm176.37-45.23-130.25,12.41,54.38-119Z"/><path class="cls-8" d="M950.74,2218.24A92,92,0,1,0,846,2141,92.14,92.14,0,0,0,950.74,2218.24Zm-23.34-154a63.73,63.73,0,1,1-53.46,72.55A63.8,63.8,0,0,1,927.4,2064.24Z"/><path class="cls-8" d="M1380.3,1583.75l76.87-167.25-167.25-76.88L1213,1506.88Zm39.33-153.35-53.23,115.81L1250.58,1493l53.23-115.82Z"/><path class="cls-8" d="M1689.69,146.24l18.19-21.68,73.52,61.72,61.72-73.52L1864.8,131l-61.71,73.52,73.52,61.71-18.21,21.68-73.52-61.72-61.71,73.52-21.68-18.19L1763.21,208Z"/></g></svg>