<svg xmlns="http://www.w3.org/2000/svg" viewBox="0 0 289.37 230"><defs><style>.cls-1{fill:#f05454;}.cls-2{fill:#30475e;}</style></defs><title>Asset 2</title><g id="Layer_2" data-name="Layer 2"><g id="Layer_2-2" data-name="Layer 2"><polygon class="cls-1" points="219.4 211.83 211.83 183.29 193 183.29 193 230 196.71 230 197 230 205.64 230 205.64 196.09 214.8 230 223.99 230 231.13 203.49 233.12 196.09 233.12 230 245.8 230 245.8 183.29 227.04 183.29 219.4 211.83"/><path class="cls-2" d="M238.5,115c0-71.68-65.59-128-140-112.36a113.55,113.55,0,0,0-87.87,90C3.78,128.91,14,162.9,34.64,188H0v42H110V188.78q-1.89-.34-3.75-.78a75,75,0,1,1,34.5,0q-1.86.44-3.75.78V230h49V177h34.36A114.31,114.31,0,0,0,238.5,115Z"/><polygon class="cls-1" points="267.23 219.64 267.23 211.64 288.96 211.64 288.96 201.43 267.32 201.43 267.32 193.63 289.24 193.63 289.3 183.29 254.57 183.29 254.57 230 289.37 230 289.37 219.64 267.23 219.64"/></g></g></svg>