<svg xmlns="http://www.w3.org/2000/svg" viewBox="0 0 289.37 229.99"><defs><style>.cls-1{fill:#f05454;}.cls-2{fill:#f0ddfe;}</style></defs><title>Asset 1</title><g id="Layer_2" data-name="Layer 2"><g id="Layer_1-2" data-name="Layer 1"><g id="Layer_2-2" data-name="Layer 2-2"><polygon class="cls-1" points="219.4 211.82 211.83 183.28 193 183.28 193 229.99 196.71 229.99 197 229.99 205.64 229.99 205.64 196.08 214.8 229.99 223.99 229.99 231.13 203.48 233.12 196.08 233.12 229.99 245.8 229.99 245.8 183.28 227.04 183.28 219.4 211.82"/><path class="cls-2" d="M238.5,115c0-71.68-65.59-128-140-112.36a113.53,113.53,0,0,0-87.87,90C3.78,128.9,14,162.89,34.64,188H0v42H110V188.77q-1.89-.35-3.75-.78a75,75,0,1,1,34.5,0q-1.86.44-3.75.78V230h49V177h34.36A114.35,114.35,0,0,0,238.5,115Z"/><polygon class="cls-1" points="267.23 219.63 267.23 211.63 288.96 211.63 288.96 201.42 267.32 201.42 267.32 193.62 289.24 193.62 289.3 183.28 254.57 183.28 254.57 229.99 289.37 229.99 289.37 219.63 267.23 219.63"/></g></g></g></svg>